<svg width="600" height="600" viewBox="0 0 600 600" fill="none" xmlns="http://www.w3.org/2000/svg">
<g clip-path="url(#clip0)">
<path d="M137.552 458.753L89.3274 326.256M137.552 458.753L99.9645 472.434M137.552 458.753L165.162 458.055M89.3274 326.256L14.1519 353.618L62.3768 486.115L99.9645 472.434M89.3274 326.256L327.546 118.235L448.622 450.887L165.162 458.055M99.9645 472.434L126.162 544.235L188.162 519.235L165.162 458.055" stroke="white" stroke-width="30"/>
<path d="M396.177 131.532C438.974 162.626 470.829 206.471 487.177 256.782C503.524 307.094 503.524 361.289 487.176 411.6L463.352 403.859C478.065 358.579 478.065 309.803 463.353 264.523C448.64 219.243 419.971 179.783 381.453 151.798L396.177 131.532Z" fill="white"/>
<path d="M439.324 45.4435C499.121 88.8884 543.629 150.148 566.469 220.444C589.31 290.739 589.31 366.46 566.469 436.756L543.168 429.185C564.41 363.81 564.41 293.389 543.168 228.015C521.927 162.64 480.535 105.668 424.924 65.2644L439.324 45.4435Z" fill="white"/>
</g>
<defs>
<clipPath id="clip0">
<rect width="600" height="600" fill="white"/>
</clipPath>
</defs>
</svg>
