<svg width="600" height="600" viewBox="0 0 600 600" fill="none" xmlns="http://www.w3.org/2000/svg">
<path d="M140 300.728V522H193.091M140 300.728H68L305.091 112.938L380.727 171.167M140 300.728L305.091 171.167L461.455 300.728M461.455 300.728V522H280.364M461.455 300.728H532L438.909 222.118M438.909 222.118V78H380.727V171.167M438.909 222.118L380.727 171.167M371.273 324.02H322.545V374.243M371.273 324.02H420V374.243M371.273 324.02V424.466M371.273 424.466H420V374.243M371.273 424.466H322.545V374.243M322.545 374.243H420M193.091 522V345.856H280.364V522M193.091 522H280.364" stroke="white" stroke-width="22"/>
</svg>
