<svg width="600" height="600" viewBox="0 0 600 600" fill="none" xmlns="http://www.w3.org/2000/svg">
<mask id="path-1-inside-1" fill="white">
<rect x="41" y="54" width="518.405" height="351.693" rx="30"/>
</mask>
<rect x="41" y="54" width="518.405" height="351.693" rx="30" stroke="white" stroke-width="70" mask="url(#path-1-inside-1)"/>
<mask id="path-2-inside-2" fill="white">
<path d="M140.342 401.838C140.342 364.135 157.184 327.975 187.164 301.315C217.144 274.654 257.805 259.677 300.202 259.677C342.6 259.677 383.261 274.654 413.241 301.315C443.22 327.975 460.063 364.135 460.063 401.838L300.202 401.838L140.342 401.838Z"/>
</mask>
<path d="M140.342 401.838C140.342 364.135 157.184 327.975 187.164 301.315C217.144 274.654 257.805 259.677 300.202 259.677C342.6 259.677 383.261 274.654 413.241 301.315C443.22 327.975 460.063 364.135 460.063 401.838L300.202 401.838L140.342 401.838Z" stroke="white" stroke-width="50" mask="url(#path-2-inside-2)"/>
<circle cx="300.202" cy="196.733" r="75.4233" stroke="white" stroke-width="25"/>
<path d="M278.547 483.189V393.133H325.189V483.189H441.793V519.879H158.612V483.189H278.547Z" stroke="white" stroke-width="20"/>
</svg>
